<svg width="20" height="21" viewBox="0 0 20 21" fill="none" xmlns="http://www.w3.org/2000/svg">
<path fill-rule="evenodd" clip-rule="evenodd" d="M9.96735 0.922363C11.7296 0.922363 13.1599 2.35261 13.1599 4.11489V7.30741H16.3524C18.1147 7.30741 19.5449 8.73766 19.5449 10.4999C19.5449 12.2622 18.1147 13.6925 16.3524 13.6925H13.1599V16.885C13.1599 18.6473 11.7296 20.0775 9.96735 20.0775C8.20507 20.0775 6.77482 18.6473 6.77482 16.885V13.6925H3.5823C1.82002 13.6925 0.389771 12.2622 0.389771 10.4999C0.389771 8.73766 1.82002 7.30741 3.5823 7.30741H6.77482V4.11489C6.77482 2.35261 8.20507 0.922363 9.96735 0.922363Z" fill="white"/>
</svg>
