<svg width="18" height="18" viewBox="0 0 18 18" fill="none" xmlns="http://www.w3.org/2000/svg">
<path d="M14.2653 7.60396C13.3292 7.60396 12.3931 7.60396 11.4454 7.60396C10.8675 7.60396 10.6711 7.39586 10.6595 6.81779C10.6595 4.91017 10.6595 3.00255 10.6595 1.09492C10.6711 0.539978 10.8907 0.320312 11.4569 0.320312C13.3638 0.320312 15.2707 0.320312 17.1776 0.320312C17.7555 0.320312 17.9635 0.528417 17.9635 1.10648C17.9635 3.02567 17.9635 4.94485 17.9635 6.86404C17.9635 7.37274 17.7324 7.60396 17.2239 7.60396C16.23 7.61553 15.2476 7.60396 14.2653 7.60396ZM16.7038 6.3669C16.7038 4.73675 16.7038 3.15284 16.7038 1.56894C15.0858 1.56894 13.491 1.56894 11.9077 1.56894C11.9077 3.18753 11.9077 4.77143 11.9077 6.3669C13.5141 6.3669 15.0974 6.3669 16.7038 6.3669Z" fill="#A6A6A6"/>
<path d="M4.60406 10.0312C5.55173 10.0312 6.51095 10.0312 7.45862 10.0312C8.03647 10.0312 8.24449 10.2394 8.24449 10.8174C8.24449 12.7366 8.24449 14.6558 8.24449 16.575C8.24449 17.0837 8.01335 17.3149 7.50485 17.3149C5.57484 17.3149 3.63328 17.3149 1.70327 17.3149C1.1832 17.3149 0.963623 17.0952 0.963623 16.575C0.963623 14.6442 0.963623 12.7019 0.963623 10.7712C0.963623 10.2625 1.19476 10.0312 1.70327 10.0312C2.67405 10.0312 3.64483 10.0312 4.60406 10.0312ZM2.20022 16.0778C3.82974 16.0778 5.41304 16.0778 7.0079 16.0778C7.0079 14.4592 7.0079 12.8753 7.0079 11.2799C5.38993 11.2799 3.79507 11.2799 2.20022 11.2799C2.20022 12.8869 2.20022 14.4708 2.20022 16.0778Z" fill="#A6A6A6"/>
<path d="M8.25605 4.00838C8.25605 4.94485 8.25605 5.88132 8.25605 6.81779C8.25605 7.3843 8.03647 7.60396 7.47018 7.60396C5.56328 7.60396 3.65639 7.60396 1.76105 7.60396C1.1832 7.60396 0.963623 7.3843 0.963623 6.81779C0.963623 4.93329 0.963623 3.03723 0.963623 1.15273C0.963623 0.516855 1.16009 0.320312 1.79572 0.320312C3.69106 0.320312 5.57484 0.320312 7.47018 0.320312C8.02491 0.320312 8.24449 0.539978 8.24449 1.10648C8.25605 2.07764 8.24449 3.03723 8.25605 4.00838C8.24449 4.00838 8.24449 4.00838 8.25605 4.00838ZM7.0079 6.3669C7.0079 4.73675 7.0079 3.15284 7.0079 1.55738C5.38993 1.55738 3.79507 1.55738 2.21177 1.55738C2.21177 3.17597 2.21177 4.77143 2.21177 6.3669C3.82974 6.3669 5.41304 6.3669 7.0079 6.3669Z" fill="#A6A6A6"/>
<path d="M14.3119 17.3149C13.3642 17.3149 12.405 17.3149 11.4573 17.3149C10.891 17.3149 10.6714 17.0952 10.6714 16.5287C10.6714 14.6211 10.6714 12.7135 10.6714 10.8174C10.6714 10.2509 10.891 10.0312 11.4573 10.0312C13.3758 10.0312 15.2942 10.0312 17.2127 10.0312C17.7327 10.0312 17.9523 10.2625 17.9523 10.7712C17.9523 12.7019 17.9523 14.6442 17.9523 16.575C17.9523 17.0952 17.7327 17.3149 17.2127 17.3149C16.2534 17.3265 15.2827 17.3149 14.3119 17.3149ZM11.9196 11.2683C11.9196 12.8985 11.9196 14.4939 11.9196 16.0663C13.5376 16.0663 15.1324 16.0663 16.7157 16.0663C16.7157 14.4477 16.7157 12.8638 16.7157 11.2683C15.1093 11.2683 13.526 11.2683 11.9196 11.2683Z" fill="#A6A6A6"/>
</svg>
