<svg width="26" height="17" viewBox="0 0 26 17" fill="none" xmlns="http://www.w3.org/2000/svg">
<path d="M11.8804 15.5676L8.87639 4.40277L7.7344 8.95222H0.719327C0.522432 8.95222 0.336789 8.85881 0.224278 8.69947C-0.225767 8.0676 0.224278 7.39178 0.837464 7.39178H6.48553L8.20695 0.540133C8.37009 -0.108219 9.31519 -0.119208 9.48958 0.529144L12.6455 12.2654L15.5202 4.14453C15.7115 3.60607 16.4709 3.55662 16.7353 4.06211L18.4342 7.30936H24.3692C24.5661 7.30936 24.7517 7.40277 24.8642 7.56211C25.3143 8.19398 24.8642 8.8698 24.2511 8.8698H17.4498L16.3078 6.68299L13.1462 15.6171C12.9324 16.2214 12.0492 16.1885 11.8804 15.5676Z" fill="white"/>
</svg>
