<svg width="25" height="25" viewBox="0 0 25 25" fill="none" xmlns="http://www.w3.org/2000/svg">
<path d="M22.3137 5.60603C22.0137 5.90906 21.8637 6.21209 21.5637 6.51512C21.1137 6.96967 20.8137 7.57573 20.3637 8.03027C19.4637 9.09088 18.5637 10.303 17.6637 11.3636C16.9137 12.4242 16.0137 13.3333 15.2637 14.3939C14.8137 14.8485 14.3637 15.4545 13.9137 16.0606C13.6137 16.3636 13.3137 16.5151 13.0137 16.8181C12.5637 17.1212 12.1137 17.4242 11.5137 17.7272C10.7637 18.1818 10.1637 18.6363 9.41375 19.0909C9.26375 19.2424 9.11375 19.2424 8.96375 19.2424C8.66375 19.3939 8.21375 18.9394 8.21375 18.6363C8.21375 18.4848 8.36375 18.1818 8.36375 18.0303C8.81375 16.6666 9.41375 15.303 9.86375 13.9394C10.0137 13.4848 10.3137 13.1818 10.6137 12.8788C12.1137 10.9091 13.4637 9.09088 14.9637 7.42421C15.8637 6.36361 16.6137 5.303 17.5137 4.39391C17.8137 4.09088 18.1137 3.63633 18.4137 3.3333C18.4137 3.03027 18.5637 2.87876 18.7137 2.72724C18.8637 2.57573 18.8637 2.57573 19.0137 2.72724C19.9137 3.48482 20.9637 4.39391 21.8637 5.15148C22.0137 5.303 22.1637 5.45451 22.3137 5.60603ZM11.2137 13.7878C11.2137 13.9394 11.0637 13.9394 11.0637 14.0909C10.9137 14.5454 10.7637 15.1515 10.4637 15.606C10.3137 16.2121 10.1637 16.0606 10.7637 16.5151C10.9137 16.6666 11.0637 16.6666 11.2137 16.5151C11.6637 16.2121 12.1137 15.9091 12.5637 15.606C12.7137 15.4545 12.8637 15.4545 13.0137 15.303C12.4137 14.8485 11.8137 14.3939 11.2137 13.7878Z" fill="#08AAA8"/>
<path d="M1.91367 19.0909C2.21367 19.0909 2.66367 19.0909 2.96367 19.0909V19.2424C2.96367 20.4545 2.96367 21.5151 2.96367 22.7272C2.96367 23.3333 3.41367 23.7878 4.01367 23.7878C8.51367 23.7878 13.0137 23.7878 17.5137 23.7878C18.2637 23.7878 19.0137 23.7878 19.7637 23.7878C20.5137 23.7878 20.8137 23.4848 20.8137 22.7272C20.8137 21.6666 20.8137 20.4545 20.8137 19.3939C20.8137 16.2121 20.8137 13.0303 20.8137 9.84845V9.69693C21.1137 9.24239 21.4137 8.78784 21.8637 8.33329C21.8637 8.48481 21.8637 8.48481 21.8637 8.63632C21.8637 13.3333 21.8637 18.0303 21.8637 22.7272C21.8637 23.9394 20.9637 24.8484 19.7637 24.8484C14.5137 24.8484 9.11367 24.8484 3.86367 24.8484C2.66367 24.8484 1.76367 23.9394 1.76367 22.7272C1.76367 21.5151 1.76367 20.303 1.76367 19.0909C1.91367 19.2424 1.91367 19.0909 1.91367 19.0909Z" fill="#08AAA8"/>
<path d="M17.6637 1.66672C17.3637 1.96975 17.0637 2.4243 16.7637 2.72733C16.7637 2.72733 16.6137 2.87884 16.4637 2.87884C15.5637 2.87884 14.5137 2.87884 13.6137 2.87884C10.3137 2.87884 7.1637 2.87884 3.8637 2.87884C3.1137 2.87884 2.8137 3.18187 2.8137 3.93945C2.8137 5.15157 2.8137 6.21217 2.8137 7.4243C2.8137 7.4243 2.8137 7.57581 2.8137 7.72733C2.6637 7.57581 2.2137 7.57581 1.9137 7.57581V7.4243C1.9137 6.21217 1.9137 5.00005 1.9137 3.78793C1.9137 2.57581 2.8137 1.66672 4.0137 1.66672C8.5137 1.66672 13.0137 1.66672 17.5137 1.66672C17.5137 1.66672 17.5137 1.66672 17.6637 1.66672Z" fill="#08AAA8"/>
<path d="M23.0636 4.69693C21.8636 3.63632 20.6636 2.72723 19.4636 1.81814C19.7636 1.51511 20.0636 1.21208 20.2136 0.909051C20.3636 0.757535 20.5136 0.60602 20.6636 0.454505C21.1136 -4.04119e-05 21.7136 -4.04119e-05 22.1636 0.454505C22.7636 0.909051 23.3636 1.3636 23.8136 1.81814C24.2636 2.27269 24.4136 2.87875 24.1136 3.33329C23.9636 3.48481 23.8136 3.63632 23.8136 3.78784C23.6636 4.09087 23.3636 4.3939 23.0636 4.69693Z" fill="#08AAA8"/>
<path d="M2.0637 8.18175C2.3637 8.18175 2.8137 8.18175 3.1137 8.18175C3.2637 8.18175 3.2637 8.18175 3.4137 8.03023C3.7137 7.57569 4.3137 7.57569 4.6137 8.03023C5.0637 8.33326 5.0637 9.09084 4.6137 9.39387C4.3137 9.6969 3.7137 9.6969 3.2637 9.24235C3.2637 9.24235 3.1137 9.09084 2.9637 9.09084C2.3637 9.09084 1.6137 9.09084 1.0137 9.09084C0.563696 9.09084 0.413696 8.93932 0.413696 8.63629C0.413696 8.33326 0.563696 8.18175 0.863696 8.18175C1.3137 8.18175 1.6137 8.18175 2.0637 8.18175Z" fill="#08AAA8"/>
<path d="M2.0637 12.8787C2.3637 12.8787 2.8137 12.8787 3.1137 12.8787C3.2637 12.8787 3.2637 12.8787 3.4137 12.7272C3.7137 12.4241 4.1637 12.2726 4.4637 12.4241C4.7637 12.5756 5.0637 13.0302 4.9137 13.4847C4.9137 13.9393 4.4637 14.2423 4.0137 14.2423C3.7137 14.2423 3.4137 14.0908 3.2637 13.9393C3.2637 13.7878 3.1137 13.7878 2.9637 13.7878C2.2137 13.7878 1.4637 13.7878 0.863696 13.7878C0.563696 13.7878 0.413696 13.6363 0.413696 13.3332C0.413696 13.0302 0.563696 12.8787 0.863696 12.8787H1.0137C1.3137 12.8787 1.6137 12.8787 2.0637 12.8787Z" fill="#08AAA8"/>
<path d="M2.0637 17.4242C2.3637 17.4242 2.8137 17.4242 3.1137 17.4242C3.2637 17.4242 3.2637 17.4242 3.4137 17.2727C3.7137 16.8181 4.4637 16.8181 4.7637 17.1212C5.2137 17.4242 5.0637 18.1818 4.7637 18.4848C4.3137 18.7878 3.7137 18.7878 3.4137 18.3333C3.2637 18.1818 3.2637 18.1818 3.1137 18.1818C2.3637 18.1818 1.7637 18.1818 1.0137 18.1818C0.563696 18.4848 0.413696 18.1818 0.413696 18.0302C0.413696 17.7272 0.563696 17.5757 0.863696 17.5757C1.3137 17.4242 1.6137 17.4242 2.0637 17.4242Z" fill="#08AAA8"/>
<path d="M2.9637 12.2726C2.6637 12.2726 2.2137 12.2726 1.9137 12.2726C1.9137 11.3636 1.9137 10.606 1.9137 9.69689C2.2137 9.69689 2.6637 9.69689 2.9637 9.69689C2.9637 10.606 2.9637 11.3636 2.9637 12.2726Z" fill="#08AAA8"/>
<path d="M1.9137 14.3939C2.2137 14.3939 2.6637 14.3939 2.9637 14.3939C2.9637 15.303 2.9637 16.0606 2.9637 16.9696C2.6637 16.9696 2.2137 16.9696 1.9137 16.9696C1.9137 16.0606 1.9137 15.1515 1.9137 14.3939Z" fill="#08AAA8"/>
</svg>
