<svg width="21" height="21" viewBox="0 0 21 21" fill="none" xmlns="http://www.w3.org/2000/svg">
<path d="M18.514 3.05371H8.45517C8.18294 1.71812 6.99916 0.709961 5.58435 0.709961H2.02966C1.06041 0.709961 0.271851 1.49852 0.271851 2.46777V18.9521C0.271851 19.9214 1.06041 20.71 2.02966 20.71H18.514C19.4833 20.71 20.2719 19.9214 20.2719 18.9521C20.2719 17.6957 20.2719 6.74016 20.2719 4.81152C20.2719 3.84227 19.4833 3.05371 18.514 3.05371ZM2.02966 1.88184H5.58435C6.55361 1.88184 7.34216 2.67039 7.34216 3.63965C7.34216 3.96324 7.60451 4.22559 7.9281 4.22559H18.514C18.8371 4.22559 19.1 4.48844 19.1 4.81152V7.74121H17.9281V5.9834C17.9281 5.6598 17.6658 5.39746 17.3422 5.39746H3.20154C2.87794 5.39746 2.6156 5.6598 2.6156 5.9834V7.74121H1.44373V2.46777C1.44373 2.14469 1.70658 1.88184 2.02966 1.88184ZM3.78748 7.74121V6.56934H16.7562V7.74121H3.78748ZM19.1 18.9521C19.1 19.2752 18.8371 19.5381 18.514 19.5381H2.02966C1.70658 19.5381 1.44373 19.2752 1.44373 18.9521V8.91309H19.1V18.9521Z" fill="white"/>
</svg>
