<svg width="18" height="25" viewBox="0 0 18 25" fill="none" xmlns="http://www.w3.org/2000/svg">
<path d="M6.24871 3.19979C6.24871 3.65686 6.24871 4.08987 6.24871 4.57901C6.41711 4.57901 6.56946 4.57901 6.72984 4.57901C8.4699 4.57901 10.2019 4.57901 11.942 4.57901C12.2788 4.57901 12.5514 4.65118 12.6637 5.01202C12.816 5.49314 12.5193 5.87002 11.9741 5.87002C10.9076 5.87804 9.83308 5.87002 8.76659 5.87002C7.74821 5.87002 6.73785 5.87002 5.71948 5.87002C5.13411 5.87002 4.92563 5.66955 4.92563 5.06815C4.91761 4.26628 4.91761 3.46441 4.92563 2.66254C4.93364 2.06915 5.13411 1.8767 5.7275 1.86869C5.90391 1.86869 6.0723 1.85265 6.24871 1.86869C6.802 1.9168 7.227 1.81255 7.62793 1.30738C8.26141 0.497486 9.55242 0.617767 10.21 1.48379C10.4345 1.78048 10.667 1.89274 11.0198 1.86869C11.3246 1.84463 11.6373 1.86869 11.942 1.86067C12.2627 1.85265 12.5033 1.94085 12.6797 2.23755C12.7278 2.33377 12.9123 2.3899 13.0325 2.39792C13.8745 2.41396 14.7165 2.40594 15.5584 2.40594C16.9457 2.40594 17.5711 3.02338 17.5711 4.4026C17.5711 6.99264 17.5711 9.5907 17.5711 12.1807C17.5711 15.717 17.5711 19.2613 17.5711 22.7975C17.5711 24.1126 16.9216 24.7621 15.5985 24.7621C11.084 24.7621 6.56144 24.7621 2.04691 24.7621C0.7158 24.7781 0.0662842 24.1206 0.0662842 22.7975C0.0662842 20.3278 0.0662842 17.85 0.0662842 15.3802C0.0662842 11.7076 0.0662842 8.03507 0.0662842 4.3625C0.0662842 3.06347 0.707781 2.42198 2.00681 2.41396C2.31152 2.41396 2.62425 2.40594 2.92897 2.42198C3.29783 2.44603 3.51433 2.68659 3.51433 3.05545C3.51433 3.4163 3.29783 3.6729 2.93698 3.69695C2.64831 3.72101 2.35162 3.70497 2.05493 3.70497C1.43748 3.70497 1.3573 3.78516 1.3573 4.39458C1.3573 6.35916 1.3573 8.32375 1.3573 10.2883C1.3573 14.442 1.3573 18.5957 1.3573 22.7494C1.3573 23.3909 1.42947 23.4631 2.07096 23.4631C6.56144 23.4631 11.0519 23.4631 15.5424 23.4631C16.1999 23.4631 16.2641 23.3989 16.2641 22.7173C16.2641 19.8867 16.2641 17.0481 16.2641 14.2175C16.2641 10.9619 16.2641 7.69829 16.2641 4.44269C16.2641 3.78516 16.1919 3.71299 15.5264 3.71299C14.4198 3.71299 13.3052 3.71299 12.1986 3.71299C11.8698 3.71299 11.6052 3.64082 11.4288 3.32007C11.3807 3.23187 11.1882 3.16772 11.068 3.17574C10.2741 3.21583 9.62459 2.99932 9.17554 2.3017C8.99913 2.02906 8.62225 2.01302 8.46188 2.26962C7.99679 3.00734 7.32322 3.22385 6.50531 3.16772C6.42513 3.16772 6.35296 3.18375 6.24871 3.19979Z" fill="white"/>
<path d="M10.0658 10.112C9.79312 10.6733 9.54454 11.1705 9.32002 11.6757C8.81484 12.8224 8.33372 13.9771 7.80448 15.1077C7.70826 15.3082 7.41959 15.5567 7.22714 15.5487C7.00261 15.5407 6.6979 15.3322 6.58564 15.1237C6.1847 14.394 5.79179 13.6403 5.49509 12.8625C5.28661 12.3092 4.89369 12.3252 4.45266 12.3332C3.94748 12.3412 3.4423 12.3573 2.93713 12.3493C2.47204 12.3412 2.23148 12.1167 2.22346 11.7158C2.21544 11.2908 2.456 11.0502 2.93713 11.0422C3.80315 11.0342 4.67719 11.0422 5.54321 11.0342C5.92811 11.0342 6.16867 11.2266 6.32102 11.5554C6.58564 12.1328 6.85827 12.7101 7.17902 13.3917C7.31534 13.111 7.41958 12.9266 7.49977 12.7422C8.15731 11.2266 8.7988 9.69507 9.47237 8.18755C9.55256 8.01114 9.81718 7.8668 10.0257 7.81869C10.3143 7.75454 10.5228 7.95501 10.6431 8.21962C11.012 9.03753 11.3888 9.84742 11.7256 10.6733C11.8379 10.954 11.9902 11.0502 12.2869 11.0422C13.0487 11.0182 13.8105 11.0342 14.5723 11.0342C15.1015 11.0342 15.3741 11.2507 15.3822 11.6596C15.3822 12.1167 15.1336 12.3412 14.5963 12.3493C13.61 12.3493 12.6237 12.3412 11.6374 12.3493C11.2445 12.3493 10.9879 12.2129 10.8275 11.8361C10.611 11.2748 10.3384 10.7295 10.0658 10.112Z" fill="white"/>
<path d="M6.37709 18.0749C7.51575 18.0749 8.64639 18.0749 9.78505 18.0749C10.2742 18.0749 10.5388 18.2994 10.5468 18.7004C10.5548 19.1173 10.2902 19.3579 9.77703 19.3579C7.52377 19.3579 5.26249 19.3579 3.00924 19.3579C2.48802 19.3579 2.23142 19.1414 2.23944 18.7084C2.23944 18.2754 2.49604 18.0669 3.01725 18.0669C4.13186 18.0749 5.25447 18.0749 6.37709 18.0749Z" fill="white"/>
<path d="M4.80532 20.2399C5.40672 20.2399 6.00812 20.2319 6.60953 20.2399C7.06659 20.2479 7.29914 20.4805 7.29914 20.8894C7.29112 21.2903 7.06659 21.5149 6.63358 21.5229C5.39068 21.5309 4.14778 21.5309 2.90488 21.5229C2.47187 21.5229 2.23933 21.2903 2.23933 20.8894C2.23131 20.4805 2.47187 20.2399 2.92894 20.2399C3.54638 20.2319 4.17184 20.2399 4.80532 20.2399Z" fill="white"/>
</svg>
