<svg width="15" height="17" viewBox="0 0 15 17" fill="none" xmlns="http://www.w3.org/2000/svg">
<g clip-path="url(#clip0)">
<path d="M1.95587 3.49007C1.62263 3.49007 1.30174 3.49832 0.98496 3.49007C0.655838 3.48181 0.437795 3.23418 0.474822 2.92464C0.507734 2.65638 0.717549 2.48304 1.03021 2.48304C1.92707 2.47891 2.82804 2.48304 3.7249 2.48304C3.79895 2.48304 3.873 2.48304 3.95117 2.48304C3.97174 2.26842 3.97585 2.07032 4.01288 1.87634C4.16921 1.06329 4.81922 0.493739 5.64203 0.485485C6.88446 0.468976 8.12278 0.473103 9.36521 0.489612C10.2127 0.501994 10.9162 1.22425 10.9697 2.09921C10.9779 2.21477 10.9697 2.33033 10.9697 2.48716C11.0602 2.48716 11.1384 2.48716 11.2165 2.48716C12.1134 2.48716 13.0143 2.48716 13.9112 2.48716C14.2321 2.48716 14.446 2.66463 14.4707 2.94528C14.4954 3.24656 14.2856 3.47768 13.9647 3.49419C13.8001 3.50245 13.6356 3.49419 13.471 3.49419C13.3147 3.49419 13.1583 3.49419 12.9773 3.49419C12.9773 3.6015 12.9773 3.68817 12.9773 3.77484C12.9773 7.42739 12.9773 11.0799 12.9773 14.7284C12.9773 15.5951 12.4425 16.3049 11.6444 16.4865C11.4922 16.5195 11.3317 16.5319 11.1754 16.5319C8.70697 16.5361 6.23856 16.5361 3.77015 16.5319C2.71285 16.5319 1.97232 15.7849 1.96821 14.7242C1.9641 12.6194 1.9641 10.5145 1.9641 8.40965C1.9641 6.84133 1.9641 5.27713 1.9641 3.70881C1.96821 3.6469 1.95998 3.57674 1.95587 3.49007ZM2.97203 3.50245C2.97203 3.59737 2.97203 3.67992 2.97203 3.75833C2.97203 5.96637 2.97203 8.17028 2.97203 10.3783C2.97203 11.8228 2.97203 13.2673 2.97203 14.7118C2.97203 15.2442 3.26001 15.5249 3.78661 15.5249C5.23474 15.5249 6.67876 15.5249 8.12689 15.5249C9.1554 15.5249 10.1839 15.5249 11.2124 15.5249C11.6444 15.5249 11.9365 15.2401 11.9612 14.815C11.9653 14.7242 11.9653 14.6376 11.9653 14.5468C11.9653 12.4584 11.9653 10.3659 11.9653 8.27758C11.9653 6.76291 11.9653 5.25237 11.9653 3.7377C11.9653 3.66341 11.9653 3.58912 11.9653 3.50657C8.96615 3.50245 5.9876 3.50245 2.97203 3.50245ZM4.99201 2.47065C6.65408 2.47065 8.3038 2.47065 9.9494 2.47065C10.044 1.85158 9.73547 1.48426 9.13483 1.48426C8.02404 1.48426 6.91326 1.48426 5.80247 1.48426C5.20183 1.48426 4.89739 1.85158 4.99201 2.47065Z" fill="#08AAA8"/>
<path d="M7.97057 9.50728C7.97057 10.828 7.97057 12.1445 7.97057 13.4652C7.97057 13.8491 7.68259 14.0926 7.34935 14.0018C7.13954 13.944 6.99555 13.7789 6.97909 13.5602C6.97498 13.5065 6.97498 13.4487 6.97498 13.3951C6.97498 10.7991 6.97498 8.2031 6.97498 5.60711C6.97498 5.52044 6.97498 5.42551 6.99966 5.34297C7.06137 5.11597 7.28764 4.97565 7.51803 4.99216C7.75252 5.01279 7.94177 5.19439 7.96645 5.42964C7.97468 5.49155 7.97057 5.55345 7.97057 5.61536C7.97057 6.91542 7.97057 8.21135 7.97057 9.50728Z" fill="#08AAA8"/>
<path d="M4.46953 9.49082C4.46953 8.17838 4.46953 6.86182 4.46953 5.54938C4.46953 5.22333 4.66289 5.00459 4.95087 4.99221C5.21417 4.98395 5.43221 5.16968 5.46101 5.42969C5.46924 5.51223 5.46924 5.59477 5.46924 5.67732C5.46924 8.24029 5.46924 10.8074 5.46924 13.3704C5.46924 13.4405 5.46924 13.5066 5.46101 13.5767C5.43221 13.8326 5.22651 14.0183 4.97555 14.0225C4.72048 14.0266 4.49833 13.8326 4.46953 13.5726C4.4613 13.5107 4.46541 13.4488 4.46541 13.3869C4.46953 12.0909 4.46953 10.7909 4.46953 9.49082Z" fill="#08AAA8"/>
<path d="M10.4719 9.51978C10.4719 10.8322 10.4719 12.1488 10.4719 13.4612C10.4719 13.746 10.3485 13.9276 10.114 14.0019C9.82599 14.0886 9.52978 13.9111 9.48041 13.6139C9.46807 13.5396 9.46807 13.4612 9.46807 13.3869C9.46807 10.8157 9.46807 8.24036 9.46807 5.66913C9.46807 5.59485 9.46396 5.51643 9.47218 5.44214C9.50098 5.18626 9.70257 5.00053 9.95352 4.99641C10.2127 4.99228 10.4307 5.178 10.4637 5.43801C10.4719 5.50405 10.4678 5.57421 10.4678 5.64437C10.4719 6.93618 10.4719 8.22798 10.4719 9.51978Z" fill="#08AAA8"/>
</g>
<defs>
<clipPath id="clip0">
<rect width="14" height="16.0588" fill="white" transform="translate(0.470703 0.4729)"/>
</clipPath>
</defs>
</svg>
