<svg width="23" height="23" viewBox="0 0 23 23" fill="none" xmlns="http://www.w3.org/2000/svg">
<g clip-path="url(#clip0)">
<path d="M3.84595 0.026123C2.14004 0.026123 0.752197 1.41397 0.752197 3.11987C0.752197 4.82578 2.14004 6.21362 3.84595 6.21362C5.55185 6.21362 6.9397 4.82578 6.9397 3.11987C6.9397 1.41397 5.55185 0.026123 3.84595 0.026123ZM3.84595 4.83862C2.89823 4.83862 2.1272 4.06759 2.1272 3.11987C2.1272 2.17215 2.89823 1.40112 3.84595 1.40112C4.79367 1.40112 5.5647 2.17215 5.5647 3.11987C5.5647 4.06759 4.79367 4.83862 3.84595 4.83862Z" fill="white"/>
<path d="M3.84595 7.93237C2.14004 7.93237 0.752197 9.32022 0.752197 11.0261C0.752197 12.732 2.14004 14.1199 3.84595 14.1199C5.55185 14.1199 6.9397 12.732 6.9397 11.0261C6.9397 9.32022 5.55185 7.93237 3.84595 7.93237ZM3.84595 12.7449C2.89823 12.7449 2.1272 11.9738 2.1272 11.0261C2.1272 10.0784 2.89823 9.30737 3.84595 9.30737C4.79367 9.30737 5.5647 10.0784 5.5647 11.0261C5.5647 11.9738 4.79367 12.7449 3.84595 12.7449Z" fill="white"/>
<path d="M3.84595 15.8386C2.14004 15.8386 0.752197 17.2265 0.752197 18.9324C0.752197 20.6383 2.14004 22.0261 3.84595 22.0261C5.55185 22.0261 6.9397 20.6383 6.9397 18.9324C6.9397 17.2265 5.55185 15.8386 3.84595 15.8386ZM3.84595 20.6511C2.89823 20.6511 2.1272 19.8801 2.1272 18.9324C2.1272 17.9847 2.89823 17.2136 3.84595 17.2136C4.79367 17.2136 5.5647 17.9847 5.5647 18.9324C5.5647 19.8801 4.79367 20.6511 3.84595 20.6511Z" fill="white"/>
<path d="M11.4084 6.21362H19.6584C21.3644 6.21362 22.7522 4.82578 22.7522 3.11987C22.7522 1.41397 21.3644 0.026123 19.6584 0.026123H11.4084C9.70255 0.026123 8.3147 1.41397 8.3147 3.11987C8.3147 4.82578 9.70255 6.21362 11.4084 6.21362ZM11.4084 1.40112H19.6584C20.6062 1.40112 21.3772 2.17215 21.3772 3.11987C21.3772 4.06759 20.6062 4.83862 19.6584 4.83862H11.4084C10.4607 4.83862 9.6897 4.06759 9.6897 3.11987C9.6897 2.17215 10.4607 1.40112 11.4084 1.40112Z" fill="white"/>
<path d="M19.6584 7.93237H11.4084C9.70255 7.93237 8.3147 9.32022 8.3147 11.0261C8.3147 12.732 9.70255 14.1199 11.4084 14.1199H19.6584C21.3644 14.1199 22.7522 12.732 22.7522 11.0261C22.7522 9.32022 21.3644 7.93237 19.6584 7.93237ZM19.6584 12.7449H11.4084C10.4607 12.7449 9.6897 11.9738 9.6897 11.0261C9.6897 10.0784 10.4607 9.30737 11.4084 9.30737H19.6584C20.6062 9.30737 21.3772 10.0784 21.3772 11.0261C21.3772 11.9738 20.6062 12.7449 19.6584 12.7449Z" fill="white"/>
<path d="M19.6584 15.8386H11.4084C9.70255 15.8386 8.3147 17.2265 8.3147 18.9324C8.3147 20.6383 9.70255 22.0261 11.4084 22.0261H19.6584C21.3644 22.0261 22.7522 20.6383 22.7522 18.9324C22.7522 17.2265 21.3644 15.8386 19.6584 15.8386ZM19.6584 20.6511H11.4084C10.4607 20.6511 9.6897 19.8801 9.6897 18.9324C9.6897 17.9847 10.4607 17.2136 11.4084 17.2136H19.6584C20.6062 17.2136 21.3772 17.9847 21.3772 18.9324C21.3772 19.8801 20.6062 20.6511 19.6584 20.6511Z" fill="white"/>
</g>
<defs>
<clipPath id="clip0">
<rect width="22" height="22" fill="white" transform="translate(0.752197 0.026123)"/>
</clipPath>
</defs>
</svg>
