<svg width="120" height="46" viewBox="0 0 120 46" fill="none" xmlns="http://www.w3.org/2000/svg">
<path d="M53.647 1.8147C53.647 1.91729 53.57 1.99422 53.4672 1.99422H52.7225C52.6198 1.99422 52.5427 1.91729 52.5427 1.8147V1.071C52.5427 0.99406 52.6198 0.891479 52.7225 0.891479H53.4672C53.57 0.891479 53.647 0.968414 53.647 1.071V1.8147ZM53.6213 8.35423C53.6213 8.48246 53.5186 8.55939 53.4159 8.55939H52.8509C52.7225 8.55939 52.6455 8.45681 52.6455 8.35423V3.35342C52.6455 3.22519 52.7482 3.14826 52.8509 3.14826H53.4159C53.5443 3.14826 53.6213 3.25084 53.6213 3.35342V8.35423Z" fill="white"/>
<path d="M56.7287 4.9935C55.6501 4.7627 54.9054 4.09592 54.9054 2.91624C54.9054 1.60833 56.0353 0.864624 57.1396 0.864624C58.4236 0.864624 59.3738 1.78785 59.3738 2.91624V3.07011C59.3738 3.19834 59.2711 3.27528 59.1684 3.27528H58.5777C58.4493 3.27528 58.3723 3.17269 58.3723 3.07011V2.91624C58.3723 2.19817 57.7302 1.91608 57.1653 1.91608C56.4462 1.91608 55.9583 2.30076 55.9583 2.91624C55.9583 3.86511 56.8828 3.96769 57.6018 4.14721C58.8345 4.45495 59.6049 5.14737 59.6049 6.40399C59.6049 7.78883 58.4236 8.66077 57.1653 8.66077C55.7528 8.66077 54.7256 7.63496 54.7256 6.40399V6.22447C54.7256 6.09625 54.8283 6.01931 54.931 6.01931H55.5474C55.6758 6.01931 55.7528 6.12189 55.7528 6.22447V6.40399C55.7528 7.12206 56.3435 7.63496 57.1653 7.63496C57.987 7.63496 58.5777 7.09641 58.5777 6.40399C58.552 5.37818 57.8073 5.24996 56.7287 4.9935Z" fill="white"/>
<path d="M60.4004 5.09606C60.4774 3.94202 61.3249 3.0188 62.6346 3.0188C63.9443 3.0188 64.7918 3.94202 64.8688 5.09606C64.8945 5.53203 64.8945 6.17316 64.8688 6.60913C64.7918 7.76316 63.9443 8.68639 62.6346 8.68639C61.3249 8.68639 60.4774 7.76316 60.4004 6.60913C60.3747 6.17316 60.3747 5.53203 60.4004 5.09606ZM61.4019 6.60913C61.4533 7.17332 61.9155 7.68623 62.6603 7.68623C63.405 7.68623 63.8673 7.17332 63.9186 6.60913C63.9443 6.17316 63.9443 5.53203 63.9186 5.09606C63.8673 4.53186 63.405 4.01896 62.6603 4.01896C61.9155 4.01896 61.4533 4.53186 61.4019 5.09606C61.3506 5.53203 61.3506 6.17316 61.4019 6.60913Z" fill="white"/>
<path d="M68.311 1.83923C67.746 1.83923 67.2838 2.37778 67.2838 2.91633V3.0702C67.2838 3.14714 67.3351 3.17278 67.3865 3.17278H68.4907C68.6192 3.17278 68.6962 3.27536 68.6962 3.37794V3.9165C68.6962 4.04472 68.5935 4.12165 68.4907 4.12165H67.3865C67.3094 4.12165 67.2838 4.17295 67.2838 4.22424V8.30182C67.2838 8.43005 67.181 8.50699 67.0783 8.50699H66.539C66.4106 8.50699 66.3336 8.4044 66.3336 8.30182V4.27553C66.3336 4.19859 66.2822 4.17295 66.2308 4.17295H65.4091C65.2807 4.17295 65.2036 4.07037 65.2036 3.96779V3.42923C65.2036 3.30101 65.3063 3.22407 65.4091 3.22407H66.2308C66.3079 3.22407 66.3336 3.17278 66.3336 3.12149V2.96762C66.3336 1.81359 67.2067 0.94165 68.3367 0.94165H68.4394C68.5678 0.94165 68.6448 1.04423 68.6448 1.14681V1.65972C68.6448 1.78794 68.5421 1.86488 68.4394 1.86488H68.311V1.83923Z" fill="white"/>
<path d="M73.3957 0.967407H73.9864C74.1148 0.967407 74.1918 1.06998 74.1918 1.17257V8.35322C74.1918 8.48145 74.0891 8.55838 73.9864 8.55838H73.3957C73.2673 8.55838 73.1903 8.4558 73.1903 8.35322V4.22435C73.1903 4.14741 73.1389 4.12176 73.0875 4.12176H70.6992C70.6222 4.12176 70.5965 4.17306 70.5965 4.22435V8.35322C70.5965 8.48145 70.4938 8.55838 70.3911 8.55838H69.8004C69.672 8.55838 69.595 8.4558 69.595 8.35322V1.17257C69.595 1.04434 69.6977 0.967407 69.8004 0.967407H70.3911C70.5195 0.967407 70.5965 1.06998 70.5965 1.17257V2.99338C70.5965 3.07031 70.6479 3.09596 70.6992 3.09596H73.0875C73.1646 3.09596 73.1903 3.04467 73.1903 2.99338V1.17257C73.1903 1.06998 73.293 0.967407 73.3957 0.967407Z" fill="white"/>
<path d="M68.671 11.4305C68.8508 11.61 68.9279 11.9178 68.9279 12.3538V14.0463C68.9279 14.4823 68.8508 14.7901 68.671 14.9696C68.4913 15.1491 68.1831 15.226 67.7209 15.226H57.1147V21.2783H66.0773C66.5139 21.2783 66.822 21.3552 67.0018 21.5347C67.1816 21.7142 67.2586 22.022 67.2586 22.458V24.1505C67.2586 24.5865 67.1816 24.8943 67.0018 25.0738C66.822 25.2533 66.5139 25.3302 66.0773 25.3302H57.1147V31.6902H68.1061C68.5683 31.6902 68.8765 31.7672 69.0306 31.9467C69.1847 32.1262 69.2617 32.4339 69.2617 32.8699V34.5625C69.2617 34.9985 69.1847 35.3062 69.0306 35.4857C68.8765 35.6652 68.5683 35.7422 68.1061 35.7422H53.9816C53.5194 35.7422 53.2112 35.6652 53.0315 35.4857C52.8517 35.3062 52.7747 34.9985 52.7747 34.5625V12.3538C52.7747 11.9178 52.8517 11.61 53.0315 11.4305C53.2112 11.251 53.5194 11.1741 53.9816 11.1741H67.7465C68.1831 11.1741 68.517 11.251 68.671 11.4305Z" fill="white"/>
<path d="M95.8667 11.4304C96.0208 11.6099 96.0979 11.9177 96.0979 12.3537V34.5624C96.0979 34.9984 96.0208 35.3061 95.8667 35.4856C95.7127 35.6651 95.4045 35.7421 94.9422 35.7421H93.1703C92.708 35.7421 92.3998 35.6651 92.2458 35.4856C92.0917 35.3061 92.0146 34.9984 92.0146 34.5624V24.0222C92.0146 23.0221 92.066 21.9706 92.1944 20.8422C92.3228 19.7138 92.5282 18.4829 92.8364 17.1493H92.6053C92.1687 18.4316 91.7321 19.56 91.2699 20.5345C90.8076 21.509 90.3197 22.4835 89.7547 23.4837L86.3649 29.459C86.1851 29.7924 86.0053 29.9975 85.7999 30.1258C85.6201 30.254 85.3376 30.3053 85.0038 30.3053H83.8995C83.54 30.3053 83.2575 30.254 83.0777 30.1514C82.898 30.0488 82.7182 29.818 82.5384 29.4846L79.0458 23.4067C78.7377 22.8938 78.4809 22.4066 78.2497 21.945C78.0186 21.4833 77.7875 21.0217 77.582 20.5345C77.3766 20.0472 77.1711 19.5343 76.9657 18.9701C76.7603 18.4059 76.5548 17.7904 76.3494 17.098H76.1182C76.4007 18.4572 76.5805 19.6882 76.6832 20.7396C76.7859 21.8167 76.8373 22.8938 76.8373 23.9966V34.5111C76.8373 34.9471 76.7603 35.2548 76.6062 35.4343C76.4521 35.6138 76.1439 35.6908 75.6817 35.6908H74.0124C73.5502 35.6908 73.242 35.6138 73.0622 35.4343C72.8825 35.2548 72.8054 34.9471 72.8054 34.5111V12.3024C72.8054 11.8664 72.8825 11.5586 73.0622 11.3791C73.242 11.1996 73.5502 11.1227 74.0124 11.1227H75.5276C76.0155 11.1227 76.375 11.174 76.5805 11.3022C76.8116 11.4304 76.9914 11.6612 77.1968 12.0203L84.4131 24.8942L91.6294 12.0716C91.8349 11.6869 92.0403 11.4304 92.2458 11.3022C92.4512 11.1996 92.7594 11.1227 93.2216 11.1227H94.9165C95.3788 11.174 95.687 11.2509 95.8667 11.4304Z" fill="white"/>
<path d="M111.687 11.174C114.101 11.174 116.027 11.8407 117.414 13.1743C118.801 14.5078 119.494 16.3799 119.494 18.7906C119.494 20.5857 119.083 22.0732 118.287 23.2785C117.491 24.4582 116.361 25.3045 114.897 25.7917C115.308 26.1251 115.693 26.638 116.001 27.2791L119.802 34.588C119.982 34.9214 120.033 35.1779 119.982 35.4087C119.905 35.6395 119.648 35.7421 119.211 35.7421H117.208C116.464 35.7421 115.95 35.6908 115.642 35.5625C115.334 35.4343 115.077 35.1522 114.871 34.7162L111.969 28.8435C111.738 28.3562 111.507 27.9716 111.276 27.6382C111.045 27.3304 110.762 27.074 110.454 26.8945C110.146 26.7149 109.787 26.5867 109.376 26.5098C108.965 26.4328 108.451 26.4072 107.861 26.4072H105.292V34.5624C105.292 34.9983 105.215 35.3061 105.036 35.4856C104.856 35.6651 104.548 35.7421 104.111 35.7421H102.134C101.672 35.7421 101.363 35.6651 101.184 35.4856C101.004 35.3061 100.927 34.9983 100.927 34.5624V12.3536C100.927 11.9177 101.004 11.6099 101.184 11.4304C101.363 11.2509 101.672 11.174 102.134 11.174H111.687ZM114.923 18.7906C114.923 17.6365 114.615 16.7646 113.998 16.1491C113.382 15.5336 112.483 15.2259 111.302 15.2259H105.318V22.3553H111.302C112.483 22.3553 113.382 22.0475 113.998 21.4577C114.589 20.8422 114.923 19.9703 114.923 18.7906Z" fill="white"/>
<path d="M43.9141 11.0457H34.9772V2.12113C34.9772 1.40306 34.3865 0.838867 33.6932 0.838867H11.505C10.7859 0.838867 10.2209 1.42871 10.2209 2.12113V11.0457H1.28404C0.564977 11.0457 0 11.6355 0 12.3279V34.511C0 35.2291 0.590657 35.7933 1.28404 35.7933H10.2209V44.7178C10.2209 45.4359 10.8116 46.0001 11.505 46.0001H33.7188C34.4379 46.0001 35.0029 45.4102 35.0029 44.7178V41.2044C35.5679 40.7428 35.9531 40.0504 35.9531 39.2554C35.9531 37.8705 34.8231 36.7678 33.462 36.7678C32.0753 36.7678 30.971 37.8962 30.971 39.2554C30.971 40.0504 31.3305 40.7428 31.9212 41.2044V41.6404C31.9212 42.3585 31.3305 42.9226 30.6371 42.9226H14.638C13.919 42.9226 13.354 42.3328 13.354 41.6404V35.8189V33.9725C13.354 33.2544 12.789 32.6902 12.07 32.6902H10.2209H4.39141C3.67235 32.6902 3.10737 32.1004 3.10737 31.4079V15.431C3.10737 14.7129 3.69803 14.1487 4.39141 14.1487H10.2209H12.0443C12.7633 14.1487 13.3283 13.5845 13.3283 12.8665V11.0457V5.22419C13.3283 4.50613 13.919 3.94193 14.6124 3.94193H30.6115C31.3305 3.94193 31.8955 4.53177 31.8955 5.22419V11.0457V12.8665C31.8955 13.5845 32.4605 14.1487 33.1795 14.1487H35.0286H40.8581C41.5771 14.1487 42.1421 14.7386 42.1421 15.431V31.4079C42.1421 32.126 41.5515 32.6902 40.8581 32.6902H35.0286V16.7645C35.0286 16.0465 34.4379 15.4823 33.7445 15.4823H11.505C10.7859 15.4823 10.2209 16.0721 10.2209 16.7645V27.3047C9.65597 27.7663 9.27076 28.4587 9.27076 29.2537C9.27076 30.6386 10.4007 31.7413 11.7618 31.7413C13.1486 31.7413 14.2528 30.6129 14.2528 29.2537C14.2528 28.4587 13.8933 27.7663 13.3026 27.3047V19.842C13.3026 19.1239 13.8933 18.5597 14.5867 18.5597H30.5858C31.3048 18.5597 31.8698 19.1495 31.8698 19.842V32.6902V34.5367C31.8698 35.2547 32.4348 35.8189 33.1539 35.8189H35.0029H43.9398C44.6588 35.8189 45.2238 35.2291 45.2238 34.5367V12.3536C45.1981 11.6099 44.6332 11.0457 43.9141 11.0457Z" fill="url(#paint0_linear)"/>
<path d="M22.6245 26.9714C23.4719 26.9714 24.1653 26.2789 24.1653 25.4327V24.9967H24.6019C25.4493 24.9967 26.1427 24.3043 26.1427 23.458C26.1427 22.6117 25.4493 21.9193 24.6019 21.9193H24.1653V21.4833C24.1653 20.637 23.4719 19.9446 22.6245 19.9446C21.777 19.9446 21.0836 20.637 21.0836 21.4833V21.9193H20.647C19.7996 21.9193 19.1062 22.6117 19.1062 23.458C19.1062 24.3043 19.7996 24.9967 20.647 24.9967H21.0836V25.4327C21.0836 26.2789 21.777 26.9714 22.6245 26.9714Z" fill="url(#paint1_linear)"/>
<defs>
<linearGradient id="paint0_linear" x1="10.6405" y1="11.4667" x2="34.5815" y2="35.4409" gradientUnits="userSpaceOnUse">
<stop stop-color="#F15B59"/>
<stop offset="1" stop-color="#9F2D2B"/>
</linearGradient>
<linearGradient id="paint1_linear" x1="10.6445" y1="11.4625" x2="34.5855" y2="35.4367" gradientUnits="userSpaceOnUse">
<stop stop-color="#F15B59"/>
<stop offset="1" stop-color="#9F2D2B"/>
</linearGradient>
</defs>
</svg>
