<svg width="327" height="123" viewBox="0 0 327 123" fill="none" xmlns="http://www.w3.org/2000/svg">
<path d="M145.91 2.6573C145.91 2.93668 145.7 3.14623 145.421 3.14623H143.395C143.116 3.14623 142.906 2.93668 142.906 2.6573V0.631747C142.906 0.422207 143.116 0.142822 143.395 0.142822H145.421C145.7 0.142822 145.91 0.35236 145.91 0.631747V2.6573ZM145.84 20.4682C145.84 20.8174 145.56 21.027 145.281 21.027H143.744C143.395 21.027 143.186 20.7476 143.186 20.4682V6.8481C143.186 6.49886 143.465 6.28933 143.744 6.28933H145.281C145.63 6.28933 145.84 6.56871 145.84 6.8481V20.4682Z" fill="#3B3B3D"/>
<path d="M154.292 11.3153C151.358 10.6866 149.332 8.87063 149.332 5.65768C149.332 2.0955 152.406 0.0699463 155.409 0.0699463C158.901 0.0699463 161.486 2.58443 161.486 5.65768V6.07677C161.486 6.426 161.206 6.63554 160.927 6.63554H159.321C158.971 6.63554 158.762 6.35615 158.762 6.07677V5.65768C158.762 3.70197 157.016 2.93366 155.479 2.93366C153.523 2.93366 152.196 3.98136 152.196 5.65768C152.196 8.24201 154.711 8.5214 156.666 9.01032C160.019 9.84848 162.114 11.7343 162.114 15.1568C162.114 18.9286 158.901 21.3033 155.479 21.3033C151.637 21.3033 148.844 18.5095 148.844 15.1568V14.6679C148.844 14.3187 149.123 14.1091 149.402 14.1091H151.079C151.428 14.1091 151.637 14.3885 151.637 14.6679V15.1568C151.637 17.1125 153.244 18.5095 155.479 18.5095C157.714 18.5095 159.321 17.0427 159.321 15.1568C159.251 12.363 157.225 12.0137 154.292 11.3153Z" fill="#3B3B3D"/>
<path d="M164.279 11.5946C164.489 8.45149 166.794 5.93701 170.356 5.93701C173.918 5.93701 176.223 8.45149 176.433 11.5946C176.503 12.782 176.503 14.5282 176.433 15.7155C176.223 18.8586 173.918 21.3731 170.356 21.3731C166.794 21.3731 164.489 18.8586 164.279 15.7155C164.21 14.5282 164.21 12.782 164.279 11.5946ZM167.003 15.7155C167.143 17.2522 168.4 18.6491 170.426 18.6491C172.452 18.6491 173.709 17.2522 173.848 15.7155C173.918 14.5282 173.918 12.782 173.848 11.5946C173.709 10.058 172.452 8.66103 170.426 8.66103C168.4 8.66103 167.143 10.058 167.003 11.5946C166.864 12.782 166.864 14.5282 167.003 15.7155Z" fill="#3B3B3D"/>
<path d="M185.793 2.72417C184.256 2.72417 182.999 4.19095 182.999 5.65773V6.07682C182.999 6.28636 183.138 6.3562 183.278 6.3562H186.281C186.631 6.3562 186.84 6.63559 186.84 6.91497V8.38176C186.84 8.73099 186.561 8.94052 186.281 8.94052H183.278C183.068 8.94052 182.999 9.08022 182.999 9.21992V20.3255C182.999 20.6748 182.719 20.8843 182.44 20.8843H180.973C180.624 20.8843 180.414 20.6049 180.414 20.3255V9.35961C180.414 9.15007 180.275 9.08023 180.135 9.08023H177.9C177.551 9.08023 177.341 8.80084 177.341 8.52145V7.05467C177.341 6.70543 177.62 6.49589 177.9 6.49589H180.135C180.344 6.49589 180.414 6.3562 180.414 6.21651V5.79742C180.414 2.65432 182.789 0.279541 185.862 0.279541H186.142C186.491 0.279541 186.701 0.55893 186.701 0.838317V2.23525C186.701 2.58448 186.421 2.79403 186.142 2.79403H185.793V2.72417Z" fill="#3B3B3D"/>
<path d="M199.622 0.349243H201.228C201.578 0.349243 201.787 0.628621 201.787 0.908008V20.4651C201.787 20.8143 201.508 21.0239 201.228 21.0239H199.622C199.273 21.0239 199.063 20.7445 199.063 20.4651V9.21977C199.063 9.01023 198.923 8.94038 198.784 8.94038H192.288C192.079 8.94038 192.009 9.08008 192.009 9.21977V20.4651C192.009 20.8143 191.729 21.0239 191.45 21.0239H189.843C189.494 21.0239 189.285 20.7445 189.285 20.4651V0.908008C189.285 0.558775 189.564 0.349243 189.843 0.349243H191.45C191.799 0.349243 192.009 0.628621 192.009 0.908008V5.86713C192.009 6.07667 192.148 6.14651 192.288 6.14651H198.784C198.993 6.14651 199.063 6.00682 199.063 5.86713V0.908008C199.063 0.628621 199.343 0.349243 199.622 0.349243Z" fill="#3B3B3D"/>
<path d="M186.77 28.8468C187.259 29.3357 187.469 30.1739 187.469 31.3613V35.9712C187.469 37.1585 187.259 37.9967 186.77 38.4856C186.281 38.9746 185.443 39.1841 184.186 39.1841H155.339V55.6679H179.716C180.903 55.6679 181.741 55.8774 182.23 56.3664C182.719 56.8553 182.929 57.6935 182.929 58.8809V63.4907C182.929 64.6781 182.719 65.5163 182.23 66.0052C181.741 66.4941 180.903 66.7037 179.716 66.7037H155.339V84.0257H185.234C186.491 84.0257 187.329 84.2352 187.748 84.7241C188.167 85.213 188.377 86.0512 188.377 87.2386V91.8485C188.377 93.0359 188.167 93.874 187.748 94.363C187.329 94.8519 186.491 95.0614 185.234 95.0614H146.818C145.561 95.0614 144.723 94.8519 144.234 94.363C143.745 93.874 143.535 93.0359 143.535 91.8485V31.3613C143.535 30.1739 143.745 29.3357 144.234 28.8468C144.723 28.3579 145.561 28.1483 146.818 28.1483H184.256C185.443 28.1483 186.351 28.3579 186.77 28.8468Z" fill="#165974"/>
<path d="M260.738 28.8467C261.157 29.3356 261.366 30.1738 261.366 31.3612V91.8484C261.366 93.0358 261.157 93.874 260.738 94.3629C260.319 94.8518 259.48 95.0614 258.223 95.0614H253.404C252.147 95.0614 251.308 94.8518 250.889 94.3629C250.47 93.874 250.261 93.0358 250.261 91.8484V63.1414C250.261 60.4174 250.4 57.5537 250.75 54.4804C251.099 51.4072 251.658 48.0546 252.496 44.4225H251.867C250.68 47.9149 249.492 50.9881 248.235 53.6423C246.978 56.2964 245.651 58.9506 244.114 61.6746L234.894 77.9489C234.405 78.8569 233.917 79.4157 233.358 79.7649C232.869 80.1142 232.101 80.2539 231.193 80.2539H228.189C227.211 80.2539 226.443 80.1142 225.954 79.8348C225.465 79.5554 224.976 78.9268 224.487 78.0188L214.988 61.4651C214.15 60.0682 213.451 58.7411 212.823 57.4838C212.194 56.2266 211.566 54.9694 211.007 53.6423C210.448 52.3152 209.889 50.9182 209.331 49.3816C208.772 47.845 208.213 46.1687 207.654 44.2828H207.026C207.794 47.9847 208.283 51.3373 208.562 54.2011C208.842 57.1346 208.981 60.0682 208.981 63.0716V91.7087C208.981 92.8961 208.772 93.7343 208.353 94.2232C207.934 94.7121 207.095 94.9217 205.838 94.9217H201.298C200.041 94.9217 199.203 94.7121 198.714 94.2232C198.225 93.7343 198.015 92.8961 198.015 91.7087V31.2215C198.015 30.0341 198.225 29.1959 198.714 28.707C199.203 28.2181 200.041 28.0085 201.298 28.0085H205.419C206.746 28.0085 207.724 28.1482 208.283 28.4975C208.911 28.8467 209.4 29.4753 209.959 30.4532L229.586 65.5162L249.213 30.5929C249.772 29.5452 250.331 28.8467 250.889 28.4975C251.448 28.2181 252.286 28.0085 253.543 28.0085H258.153C259.411 28.1482 260.249 28.3578 260.738 28.8467Z" fill="#165974"/>
<path d="M303.764 28.1482C310.329 28.1482 315.568 29.9642 319.339 33.5962C323.111 37.2283 324.997 42.3271 324.997 48.8927C324.997 53.7819 323.879 57.833 321.714 61.1158C319.549 64.3288 316.476 66.6337 312.494 67.9608C313.612 68.8688 314.66 70.2658 315.498 72.0119L325.835 91.9182C326.324 92.8262 326.464 93.5247 326.324 94.1533C326.115 94.7819 325.416 95.0613 324.229 95.0613H318.781C316.755 95.0613 315.358 94.9216 314.52 94.5724C313.682 94.2232 312.983 93.4548 312.425 92.2674L304.532 76.2725C303.903 74.9455 303.275 73.8978 302.646 72.9898C302.017 72.1516 301.249 71.4531 300.411 70.9642C299.573 70.4753 298.595 70.1261 297.477 69.9165C296.36 69.707 294.963 69.6371 293.356 69.6371H286.372V91.8484C286.372 93.0358 286.162 93.8739 285.673 94.3629C285.184 94.8518 284.346 95.0613 283.159 95.0613H277.781C276.523 95.0613 275.685 94.8518 275.196 94.3629C274.707 93.8739 274.498 93.0358 274.498 91.8484V31.3611C274.498 30.1738 274.707 29.3356 275.196 28.8467C275.685 28.3577 276.523 28.1482 277.781 28.1482H303.764ZM312.564 48.8927C312.564 45.7496 311.726 43.3748 310.05 41.6984C308.373 40.0221 305.929 39.184 302.716 39.184H286.442V58.6013H302.716C305.929 58.6013 308.373 57.7632 310.05 56.1567C311.656 54.4804 312.564 52.1056 312.564 48.8927Z" fill="#165974"/>
<path d="M119.438 27.799H95.1312V3.49233C95.1312 1.53663 93.5247 0 91.6388 0H31.2913C29.3356 0 27.799 1.60647 27.799 3.49233V27.799H3.49233C1.53663 27.799 0 29.4054 0 31.2913V91.7087C0 93.6644 1.60647 95.201 3.49233 95.201H27.799V119.508C27.799 121.463 29.4055 123 31.2913 123H91.7087C93.6644 123 95.201 121.394 95.201 119.508V109.939C96.7376 108.681 97.7854 106.796 97.7854 104.63C97.7854 100.859 94.7121 97.8552 91.0102 97.8552C87.2385 97.8552 84.2351 100.928 84.2351 104.63C84.2351 106.796 85.213 108.681 86.8194 109.939V111.126C86.8194 113.082 85.213 114.618 83.3271 114.618H39.8126C37.8569 114.618 36.3203 113.012 36.3203 111.126V95.2709V90.2419C36.3203 88.2862 34.7836 86.7496 32.8279 86.7496H27.799H11.9438C9.98808 86.7496 8.45145 85.1431 8.45145 83.2572V39.7428C8.45145 37.787 10.0579 36.2504 11.9438 36.2504H27.799H32.7581C34.7138 36.2504 36.2504 34.7138 36.2504 32.7581V27.799V11.9438C36.2504 9.98807 37.8569 8.45144 39.7428 8.45144H83.2572C85.2129 8.45144 86.7496 10.0579 86.7496 11.9438V27.799V32.7581C86.7496 34.7138 88.2862 36.2504 90.2419 36.2504H95.2709H111.126C113.082 36.2504 114.618 37.8569 114.618 39.7428V83.2572C114.618 85.2129 113.012 86.7496 111.126 86.7496H95.2709V43.3748C95.2709 41.4191 93.6644 39.8825 91.7785 39.8825H31.2913C29.3356 39.8825 27.799 41.4889 27.799 43.3748V72.0818C26.2624 73.339 25.2147 75.2249 25.2147 77.3901C25.2147 81.1618 28.2879 84.1652 31.9898 84.1652C35.7615 84.1652 38.7649 81.092 38.7649 77.3901C38.7649 75.2249 37.7871 73.339 36.1806 72.0818V51.7564C36.1806 49.8007 37.7871 48.2641 39.6729 48.2641H83.1874C85.1431 48.2641 86.6797 49.8705 86.6797 51.7564V86.7496V91.7785C86.6797 93.7342 88.2163 95.2709 90.1721 95.2709H95.201H119.508C121.463 95.2709 123 93.6644 123 91.7785V31.3612C122.93 29.3356 121.394 27.799 119.438 27.799Z" fill="url(#paint0_linear)"/>
<path d="M61.5348 71.1738C63.8397 71.1738 65.7256 69.2879 65.7256 66.983V65.7955H66.913C69.2179 65.7955 71.1038 63.9097 71.1038 61.6047C71.1038 59.2998 69.2179 57.4139 66.913 57.4139H65.7256V56.2266C65.7256 53.9216 63.8397 52.0358 61.5348 52.0358C59.2299 52.0358 57.344 53.9216 57.344 56.2266V57.4139H56.1566C53.8517 57.4139 51.9658 59.2998 51.9658 61.6047C51.9658 63.9097 53.8517 65.7955 56.1566 65.7955H57.344V66.983C57.344 69.2879 59.2299 71.1738 61.5348 71.1738Z" fill="url(#paint1_linear)"/>
<defs>
<linearGradient id="paint0_linear" x1="28.9402" y1="28.9458" x2="94.1454" y2="94.151" gradientUnits="userSpaceOnUse">
<stop stop-color="#F15B59"/>
<stop offset="1" stop-color="#9F2D2B"/>
</linearGradient>
<linearGradient id="paint1_linear" x1="28.9516" y1="28.9343" x2="94.1568" y2="94.1394" gradientUnits="userSpaceOnUse">
<stop stop-color="#F15B59"/>
<stop offset="1" stop-color="#9F2D2B"/>
</linearGradient>
</defs>
</svg>
