<svg width="20" height="21" viewBox="0 0 20 21" fill="none" xmlns="http://www.w3.org/2000/svg">
<path d="M18.9314 13.2806C18.0679 11.7851 16.1587 11.2732 14.6628 12.1369L13.0762 13.0529V9.6609C13.0762 9.24156 12.9375 8.82543 12.6856 8.4891L10.7326 5.88516V4.77633C11.1872 4.61508 11.5138 4.18094 11.5138 3.67168V1.87492C11.5137 1.22879 10.9881 0.703125 10.3419 0.703125H3.31104C2.66491 0.703125 2.1392 1.22879 2.1392 1.87492V3.67172C2.1392 4.1809 2.46581 4.61512 2.92042 4.77637V5.8852L0.967251 8.4893C0.715454 8.82547 0.576782 9.24156 0.576782 9.6609V17.2257C0.576782 18.3027 1.45292 19.1788 2.52979 19.1788H8.80721C9.68303 20.6468 11.5715 21.1382 13.0519 20.2834L17.7877 17.5491C19.2703 16.693 19.7992 14.7843 18.9314 13.2806ZM2.92042 1.87492C2.92042 1.65953 3.09565 1.4843 3.311 1.4843H10.3419C10.5573 1.4843 10.7325 1.65953 10.7325 1.87492V3.67172C10.7325 3.88711 10.5573 4.0623 10.3419 4.0623H3.31104C3.09565 4.0623 2.92045 3.88707 2.92045 3.67172V1.87492H2.92042ZM1.59241 8.95777L3.6235 6.24973C3.6742 6.18215 3.70163 6.09988 3.70163 6.01535V4.84355H9.95131V5.62477H6.43588C6.22018 5.62477 6.04526 5.79969 6.04526 6.01539C6.04526 6.23109 6.22018 6.40602 6.43588 6.40602H10.1466L12.0604 8.95766C12.1855 9.12465 12.2632 9.32445 12.2867 9.53086H1.36631C1.38975 9.32441 1.46745 9.12461 1.59241 8.95777ZM2.52983 18.3975C1.8837 18.3975 1.35803 17.8719 1.35803 17.2257V16.8312H8.45471C8.33085 17.3377 8.33167 17.8786 8.4735 18.3976H2.52983V18.3975ZM8.76108 16.0539H1.35799V10.312H12.2949V13.5039L9.92702 14.8712C9.43331 15.1564 9.03424 15.5623 8.76108 16.0539ZM12.6614 19.6068C11.5404 20.2541 10.108 19.8713 9.46022 18.7496C8.8094 17.617 9.20381 16.1911 10.3177 15.5477L12.4379 14.3235L14.7815 18.3827L12.6614 19.6068ZM17.3971 16.8726L15.4581 17.9921L13.1144 13.9329L15.0534 12.8135C16.1751 12.1659 17.6071 12.5494 18.2548 13.6712C18.9054 14.7986 18.5098 16.2301 17.3971 16.8726Z" fill="#A6A6A6"/>
</svg>
