<svg width="25" height="22" viewBox="0 0 25 22" fill="none" xmlns="http://www.w3.org/2000/svg">
<path d="M0.15979 21.5017C2.69591 18.9779 5.17472 16.5111 7.66785 14.0301C7.5389 13.8448 7.45292 13.7164 7.35263 13.5739C7.42427 13.4883 7.49591 13.417 7.56755 13.3315C11.5079 9.41032 15.4481 5.48918 19.3884 1.56804C20.4631 0.49864 21.724 0.28476 22.8846 0.969177C24.2171 1.7534 24.5753 3.60703 23.6153 4.83328C23.515 4.96161 23.4147 5.08994 23.3001 5.204C19.2595 9.25347 15.2332 13.3029 11.1783 17.3524C10.9777 17.2241 10.8487 17.1385 10.6625 17.0102C9.71681 17.9655 8.74248 18.9066 7.81113 19.8904C6.90845 20.8315 5.83382 21.3021 4.51561 21.3163C3.0971 21.3591 1.66427 21.4446 0.15979 21.5017ZM13.3419 13.2174C16.3222 10.2231 19.3168 7.22874 22.2971 4.23441C22.4117 4.12035 22.512 3.99202 22.5837 3.84943C22.8416 3.37889 22.7986 2.92262 22.4834 2.49486C22.1681 2.0671 21.7096 1.89599 21.1938 2.05284C20.8929 2.15265 20.592 2.36653 20.3628 2.59467C17.4684 5.46066 14.6028 8.34092 11.7228 11.2212C11.6511 11.2925 11.5938 11.3638 11.5365 11.435C12.124 12.0197 12.6971 12.59 13.3419 13.2174ZM8.75681 15.1138C7.10904 16.7535 5.48994 18.3648 3.91382 19.9332C4.70188 19.919 5.63322 20.0616 6.33531 19.3486C7.45292 18.2364 8.52755 17.0957 9.60218 15.9836C9.34427 15.7127 9.01472 15.3704 8.75681 15.1138ZM9.38725 13.6309C9.94606 14.1727 10.5335 14.7288 11.121 15.2849C11.4649 14.9427 11.8517 14.5862 12.1813 14.2583C11.5938 13.6737 11.0207 13.0891 10.4332 12.4902C10.1037 12.8467 9.75979 13.2316 9.38725 13.6309Z" fill="white"/>
</svg>
