<svg width="400" height="400" viewBox="0 0 400 400" fill="none" xmlns="http://www.w3.org/2000/svg">
<line x1="120.142" y1="193.726" x2="279.922" y2="193.726" stroke="#20D0CE"/>
<line x1="200.532" y1="114.336" x2="200.532" y2="274.116" stroke="#20D0CE"/>
<path fill-rule="evenodd" clip-rule="evenodd" d="M38.2431 0.00732422H0.249512V38.0009H4.80245V4.58985H38.2431V0.00732422Z" fill="#20D0CE"/>
<path fill-rule="evenodd" clip-rule="evenodd" d="M361.757 399.993L399.75 399.993L399.75 361.999L395.198 361.999L395.198 395.41L361.757 395.41L361.757 399.993Z" fill="#20D0CE"/>
<path fill-rule="evenodd" clip-rule="evenodd" d="M399.75 38.0009L399.75 0.00732422L361.757 0.00732256L361.757 4.56059L395.168 4.56059L395.168 38.0009L399.75 38.0009Z" fill="#20D0CE"/>
<path fill-rule="evenodd" clip-rule="evenodd" d="M0.249517 361.999L0.249512 399.993L38.2431 399.993L38.2431 395.439L4.83171 395.439L4.83171 361.999L0.249517 361.999Z" fill="#20D0CE"/>
</svg>
