<svg width="20" height="16" viewBox="0 0 20 16" fill="none" xmlns="http://www.w3.org/2000/svg">
<path d="M3.26115 0.488281H0.722542C0.372215 0.488281 0.0878906 0.772605 0.0878906 1.12293V3.66154C0.0878906 4.01187 0.372215 4.29619 0.722542 4.29619C1.07287 4.29619 1.35719 4.01187 1.35719 3.66154V1.75758H3.26115C3.61148 1.75758 3.8958 1.47326 3.8958 1.12293C3.8958 0.772605 3.61148 0.488281 3.26115 0.488281Z" fill="#125872"/>
<path d="M18.4921 11.9114C18.1418 11.9114 17.8575 12.1957 17.8575 12.546V14.45H15.9535C15.6032 14.45 15.3188 14.7343 15.3188 15.0846C15.3188 15.435 15.6032 15.7193 15.9535 15.7193H18.4921C18.8424 15.7193 19.1268 15.435 19.1268 15.0846V12.546C19.1268 12.1957 18.8424 11.9114 18.4921 11.9114Z" fill="#125872"/>
<path d="M18.4921 0.487793H15.9535C15.6032 0.487793 15.3188 0.772117 15.3188 1.12244C15.3188 1.47277 15.6032 1.7571 15.9535 1.7571H17.8575V3.66105C17.8575 4.01138 18.1418 4.2957 18.4921 4.2957C18.8424 4.2957 19.1268 4.01138 19.1268 3.66105V1.12244C19.1268 0.772117 18.8424 0.487793 18.4921 0.487793Z" fill="#125872"/>
<path d="M3.26066 14.45H1.35671V12.546C1.35671 12.1957 1.07238 11.9114 0.722054 11.9114C0.371726 11.9114 0.0874023 12.1957 0.0874023 12.546V15.0846C0.0874023 15.435 0.371726 15.7193 0.722054 15.7193H3.26066C3.61099 15.7193 3.89531 15.435 3.89531 15.0846C3.89531 14.7343 3.61099 14.45 3.26066 14.45Z" fill="#125872"/>
<path d="M3.89528 3.02637H2.62598V13.1808H3.89528V3.02637Z" fill="#125872"/>
<path d="M6.43385 3.02637H5.16455V10.6422H6.43385V3.02637Z" fill="#125872"/>
<path d="M8.97243 3.02637H7.70312V10.6422H8.97243V3.02637Z" fill="#125872"/>
<path d="M11.511 3.02637H10.2417V13.1808H11.511V3.02637Z" fill="#125872"/>
<path d="M14.0501 3.02637H12.7808V10.6422H14.0501V3.02637Z" fill="#125872"/>
<path d="M16.5882 3.02637H15.3188V13.1808H16.5882V3.02637Z" fill="#125872"/>
<path d="M6.43385 11.9114H5.16455V13.1807H6.43385V11.9114Z" fill="#125872"/>
<path d="M8.97243 11.9114H7.70312V13.1807H8.97243V11.9114Z" fill="#125872"/>
<path d="M14.0501 11.9114H12.7808V13.1807H14.0501V11.9114Z" fill="#125872"/>
</svg>
