<svg width="51" height="32" viewBox="0 0 51 32" fill="none" xmlns="http://www.w3.org/2000/svg">
<rect x="0.113281" y="0.592041" width="50.8864" height="30.8159" rx="15.408" fill="#FE5955"/>
<path d="M17.5706 5.31738H14.0096C13.5182 5.31738 13.1194 5.71621 13.1194 6.20762V9.76857C13.1194 10.26 13.5182 10.6588 14.0096 10.6588C14.501 10.6588 14.8999 10.26 14.8999 9.76857V7.09786H17.5706C18.062 7.09786 18.4608 6.69903 18.4608 6.20762C18.4608 5.71621 18.062 5.31738 17.5706 5.31738Z" fill="white"/>
<path d="M38.9358 21.3413C38.4444 21.3413 38.0456 21.7401 38.0456 22.2315V24.9023H35.3749C34.8834 24.9023 34.4846 25.3011 34.4846 25.7925C34.4846 26.2839 34.8834 26.6827 35.3749 26.6827H38.9358C39.4272 26.6827 39.826 26.2839 39.826 25.7925V22.2315C39.826 21.7401 39.4272 21.3413 38.9358 21.3413Z" fill="white"/>
<path d="M38.9358 5.31714H35.3749C34.8834 5.31714 34.4846 5.71597 34.4846 6.20738C34.4846 6.69879 34.8834 7.09762 35.3749 7.09762H38.0456V9.76833C38.0456 10.2597 38.4444 10.6586 38.9358 10.6586C39.4272 10.6586 39.826 10.2597 39.826 9.76833V6.20738C39.826 5.71597 39.4272 5.31714 38.9358 5.31714Z" fill="white"/>
<path d="M17.5701 24.9023H14.8994V22.2315C14.8994 21.7401 14.5005 21.3413 14.0091 21.3413C13.5177 21.3413 13.1189 21.7401 13.1189 22.2315V25.7925C13.1189 26.2839 13.5177 26.6827 14.0091 26.6827H17.5701C18.0615 26.6827 18.4603 26.2839 18.4603 25.7925C18.4603 25.3011 18.0615 24.9023 17.5701 24.9023Z" fill="white"/>
<path d="M18.4602 8.87793H16.6797V23.1217H18.4602V8.87793Z" fill="white"/>
<path d="M22.0212 8.87793H20.2407V19.5608H22.0212V8.87793Z" fill="white"/>
<path d="M25.582 8.87793H23.8015V19.5608H25.582V8.87793Z" fill="white"/>
<path d="M29.1433 8.87793H27.3628V23.1217H29.1433V8.87793Z" fill="white"/>
<path d="M32.7043 8.87793H30.9238V19.5608H32.7043V8.87793Z" fill="white"/>
<path d="M36.2651 8.87793H34.4846V23.1217H36.2651V8.87793Z" fill="white"/>
<path d="M22.0212 21.3413H20.2407V23.1218H22.0212V21.3413Z" fill="white"/>
<path d="M25.582 21.3413H23.8015V23.1218H25.582V21.3413Z" fill="white"/>
<path d="M32.7043 21.3413H30.9238V23.1218H32.7043V21.3413Z" fill="white"/>
</svg>
