<svg width="22" height="21" viewBox="0 0 22 21" fill="none" xmlns="http://www.w3.org/2000/svg">
<path d="M20.2454 0.496094H2.68181C1.73439 0.496094 0.963623 1.2669 0.963623 2.21432V18.9441C0.963623 19.8916 1.73439 20.6624 2.68181 20.6624H20.2454C21.1929 20.6624 21.9636 19.8916 21.9636 18.9441V2.21432C21.9636 1.2669 21.1929 0.496094 20.2454 0.496094ZM21.1433 18.9441C21.1433 19.4392 20.7405 19.842 20.2454 19.842H2.68181C2.18671 19.842 1.78394 19.4392 1.78394 18.9441V2.21432C1.78394 1.71922 2.18671 1.31641 2.68181 1.31641H20.2454C20.7405 1.31641 21.1433 1.71918 21.1433 2.21432V18.9441Z" fill="#A6A6A6"/>
<path d="M19.7488 2.30078H3.17847C2.95194 2.30078 2.76831 2.48445 2.76831 2.71094V15.3663C2.76831 15.5928 2.95194 15.7764 3.17847 15.7764H19.7488C19.9753 15.7764 20.1589 15.5928 20.1589 15.3663V2.71094C20.1589 2.48445 19.9753 2.30078 19.7488 2.30078ZM19.3386 3.12109V7.94671H16.6236L15.6746 6.71041C15.4056 6.3601 14.9666 6.17713 14.5283 6.23324C14.0905 6.28976 13.7116 6.57756 13.5397 6.98432L13.1724 7.85291L13.0039 7.5717C12.7562 7.15822 12.2868 6.92292 11.8074 6.97214C11.328 7.02189 10.9163 7.34841 10.7588 7.80352L10.6826 8.02259L10.0433 5.31125C9.92422 4.8079 9.51698 4.43569 9.00621 4.36317C8.49434 4.29008 7.99936 4.53412 7.74654 4.98333L6.16211 7.76374L3.58862 7.76316V3.12109H19.3386ZM19.3386 9.62162H16.0099C15.8788 9.62162 15.7527 9.55932 15.6726 9.45498L15.2229 8.86915C15.134 8.75336 14.9901 8.69352 14.8454 8.7121C14.7007 8.73064 14.5766 8.82477 14.5198 8.95922L13.7559 10.7662C13.6929 10.9149 13.5544 11.0142 13.3941 11.0253C13.2335 11.0367 13.0821 10.9575 12.9994 10.8195L12.4896 9.96796C12.4077 9.8313 12.2541 9.75423 12.0957 9.77063C11.9372 9.78692 11.8025 9.89356 11.7502 10.044L10.8556 12.6196C10.7961 12.7911 10.6347 12.9063 10.454 12.9063C10.4468 12.9063 10.4395 12.9061 10.4318 12.9056C10.2441 12.896 10.0828 12.761 10.0395 12.5774L8.90745 7.77838C8.86865 7.61395 8.73301 7.49012 8.56575 7.46646C8.54647 7.46375 8.52723 7.4624 8.50812 7.4624C8.36161 7.4624 8.22425 7.54102 8.15087 7.67125L7.27925 9.21869C7.20362 9.3526 7.06158 9.43578 6.90851 9.43578H3.58862V8.58339L6.40041 8.58393C6.54778 8.58393 6.68379 8.50485 6.75675 8.37684L8.46029 5.38741C8.54692 5.23348 8.7157 5.15034 8.89043 5.17512C9.06499 5.19989 9.20411 5.32741 9.24488 5.49963L10.2079 9.58336C10.2498 9.76091 10.4038 9.88945 10.586 9.89881C10.7681 9.90931 10.9346 9.79619 10.9945 9.62384L11.5338 8.07222C11.5877 7.91652 11.7283 7.80492 11.8917 7.78794C12.0552 7.77174 12.2155 7.85172 12.3002 7.9931L12.8837 8.96718C12.9631 9.09966 13.1099 9.17652 13.2642 9.16557C13.4182 9.15478 13.5532 9.05844 13.6133 8.91615L14.2953 7.30367C14.3541 7.1645 14.4836 7.06606 14.6328 7.04678C14.782 7.02767 14.932 7.09022 15.0239 7.20986L16.096 8.60653C16.1736 8.70767 16.2938 8.76694 16.4213 8.76694H19.3386V9.62162ZM3.58862 14.9561V10.2562H6.90851C7.35693 10.2562 7.77267 10.0132 7.99374 9.62175L8.35013 8.989L9.24107 12.7658C9.3676 13.3023 9.83994 13.6967 10.3891 13.725C10.4107 13.7261 10.4324 13.7267 10.454 13.7267C10.9837 13.7267 11.4564 13.39 11.6305 12.8888L12.237 11.143L12.2958 11.2412C12.5382 11.6454 12.9809 11.8759 13.4508 11.8437C13.921 11.8112 14.3275 11.5207 14.5115 11.0857L15.0011 9.92735L15.022 9.95451C15.2563 10.2597 15.6256 10.442 16.0099 10.442H19.3386V14.9562H3.58862V14.9561Z" fill="#A6A6A6"/>
<path d="M4.06614 16.6348C3.44155 16.6348 2.93341 17.1429 2.93341 17.7675C2.93341 18.3921 3.44155 18.9002 4.06614 18.9002C4.69073 18.9002 5.19887 18.392 5.19887 17.7675C5.19887 17.1429 4.69073 16.6348 4.06614 16.6348ZM4.06614 18.0799C3.89387 18.0799 3.75372 17.9398 3.75372 17.7675C3.75372 17.5953 3.89387 17.4551 4.06614 17.4551C4.23841 17.4551 4.37856 17.5953 4.37856 17.7675C4.37856 17.9398 4.23841 18.0799 4.06614 18.0799Z" fill="#A6A6A6"/>
<path d="M7.3961 16.6348C6.77151 16.6348 6.26337 17.1429 6.26337 17.7675C6.26337 18.3921 6.77151 18.9002 7.3961 18.9002C8.02068 18.9002 8.52882 18.392 8.52882 17.7675C8.52882 17.1429 8.02068 16.6348 7.3961 16.6348ZM7.3961 18.0799C7.22383 18.0799 7.08368 17.9398 7.08368 17.7675C7.08368 17.5953 7.22383 17.4551 7.3961 17.4551C7.56836 17.4551 7.70851 17.5953 7.70851 17.7675C7.70851 17.9398 7.56836 18.0799 7.3961 18.0799Z" fill="#A6A6A6"/>
<path d="M10.726 16.6348C10.1015 16.6348 9.59332 17.1429 9.59332 17.7675C9.59332 18.3921 10.1015 18.9002 10.726 18.9002C11.3506 18.9002 11.8588 18.392 11.8588 17.7675C11.8588 17.1429 11.3507 16.6348 10.726 16.6348ZM10.726 18.0799C10.5538 18.0799 10.4136 17.9398 10.4136 17.7675C10.4136 17.5953 10.5538 17.4551 10.726 17.4551C10.8983 17.4551 11.0385 17.5953 11.0385 17.7675C11.0385 17.9398 10.8983 18.0799 10.726 18.0799Z" fill="#A6A6A6"/>
<path d="M19.709 17.3574H18.0359C17.8093 17.3574 17.6257 17.5411 17.6257 17.7676C17.6257 17.9941 17.8093 18.1777 18.0359 18.1777H19.709C19.9355 18.1777 20.1192 17.9941 20.1192 17.7676C20.1192 17.5411 19.9355 17.3574 19.709 17.3574Z" fill="#A6A6A6"/>
<path d="M14.3272 17.3574H13.3478C13.1212 17.3574 12.9376 17.5411 12.9376 17.7676C12.9376 17.9941 13.1212 18.1777 13.3478 18.1777H14.3272C14.5537 18.1777 14.7373 17.9941 14.7373 17.7676C14.7373 17.5411 14.5537 17.3574 14.3272 17.3574Z" fill="#A6A6A6"/>
<path d="M16.4169 17.4273C16.2715 17.332 16.0782 17.3368 15.9395 17.4429C15.8015 17.5484 15.7449 17.7359 15.8008 17.9003C15.8545 18.0579 16.0025 18.17 16.169 18.1778C16.3406 18.1858 16.5019 18.0838 16.5678 17.9253C16.6426 17.7454 16.5762 17.5363 16.4169 17.4273Z" fill="#A6A6A6"/>
</svg>
