<svg width="21" height="21" viewBox="0 0 21 21" fill="none" xmlns="http://www.w3.org/2000/svg">
<g clip-path="url(#clip0)">
<path d="M17.1469 13.8003H15.2719V6.30029H17.1469C18.8698 6.30029 20.2719 4.89829 20.2719 3.17529C20.2719 1.4523 18.8698 0.050293 17.1469 0.050293C15.4239 0.050293 14.0219 1.4523 14.0219 3.17529V5.05028H6.52185V3.17529C6.52185 1.4523 5.11991 0.050293 3.39685 0.050293C1.67379 0.050293 0.271851 1.4523 0.271851 3.17529C0.271851 4.89829 1.67385 6.30029 3.39685 6.30029H5.27183V13.8003H3.39685C1.67385 13.8003 0.271851 15.2023 0.271851 16.9253C0.271851 18.6483 1.67385 20.0503 3.39685 20.0503C5.11984 20.0503 6.52185 18.6483 6.52185 16.9253V15.0503H14.0219V16.9253C14.0219 18.6483 15.4239 20.0503 17.1469 20.0503C18.8698 20.0503 20.2719 18.6483 20.2719 16.9253C20.2719 15.2023 18.8698 13.8003 17.1469 13.8003ZM15.2719 3.17529C15.2719 2.14133 16.113 1.3003 17.1469 1.3003C18.1807 1.3003 19.0218 2.14139 19.0218 3.17529C19.0218 4.20919 18.1807 5.05028 17.1469 5.05028H15.2719V3.17529ZM1.52186 3.17529C1.52186 2.14133 2.36295 1.3003 3.39685 1.3003C4.43075 1.3003 5.27183 2.14139 5.27183 3.17529V5.05028H3.39685C2.36289 5.05028 1.52186 4.20925 1.52186 3.17529ZM5.27183 16.9253C5.27183 17.9593 4.43075 18.8003 3.39685 18.8003C2.36295 18.8003 1.52186 17.9592 1.52186 16.9253C1.52186 15.8914 2.36295 15.0503 3.39685 15.0503H5.27183V16.9253ZM6.52185 6.30029H14.0219V13.8003H6.52185V6.30029ZM17.1469 18.8003C16.1129 18.8003 15.2719 17.9592 15.2719 16.9253V15.0503H17.1469C18.1808 15.0503 19.0218 15.8914 19.0218 16.9253C19.0218 17.9592 18.1808 18.8003 17.1469 18.8003Z" fill="white"/>
</g>
<defs>
<clipPath id="clip0">
<rect width="20" height="20" fill="white" transform="translate(0.271851 0.050293)"/>
</clipPath>
</defs>
</svg>
